<svg xmlns="http://www.w3.org/2000/svg" width="48" height="48" viewBox="0 0 48 48">
  <defs>
    <linearGradient id="shieldGrad" x1="0" y1="0" x2="0" y2="1">
      <stop offset="0%" stop-color="#00d4ff" stop-opacity="0.9"/>
      <stop offset="100%" stop-color="#0080aa" stop-opacity="0.9"/>
    </linearGradient>
    <linearGradient id="bgGrad" x1="0" y1="0" x2="0" y2="1">
      <stop offset="0%" stop-color="#0f1520"/>
      <stop offset="100%" stop-color="#0a0e17"/>
    </linearGradient>
  </defs>
  <!-- Rounded square background -->
  <rect width="48" height="48" rx="10" fill="url(#bgGrad)"/>
  <!-- Shield / phone silhouette outline -->
  <path d="M24 4C16 4 10 8 10 8v20c0 6 6 12 14 16 8-4 14-10 14-16V8s-6-4-14-4z"
        fill="none" stroke="url(#shieldGrad)" stroke-width="1.8" stroke-linejoin="round" opacity="0.35"/>
  <!-- Inner shield fill -->
  <path d="M24 7C17.5 7 12.5 10 12.5 10v18c0 5 5 10 11.5 13.5C30.5 38 35.5 33 35.5 28V10s-5-3-11.5-3z"
        fill="url(#shieldGrad)" opacity="0.1"/>
  <!-- Stylized M -->
  <path d="M15 32V16l4.5 8L24 16l4.5 8L33 16v16"
        fill="none" stroke="#00d4ff" stroke-width="2.6" stroke-linecap="round" stroke-linejoin="round"/>
  <!-- Subtle glow dot at top -->
  <circle cx="24" cy="10" r="1.5" fill="#00d4ff" opacity="0.7"/>
  <!-- Corner accents -->
  <line x1="6" y1="6" x2="10" y2="6" stroke="#00d4ff" stroke-width="1.2" stroke-linecap="round" opacity="0.4"/>
  <line x1="6" y1="6" x2="6" y2="10" stroke="#00d4ff" stroke-width="1.2" stroke-linecap="round" opacity="0.4"/>
  <line x1="42" y1="6" x2="38" y2="6" stroke="#00d4ff" stroke-width="1.2" stroke-linecap="round" opacity="0.4"/>
  <line x1="42" y1="6" x2="42" y2="10" stroke="#00d4ff" stroke-width="1.2" stroke-linecap="round" opacity="0.4"/>
</svg>
