<svg xmlns="http://www.w3.org/2000/svg">
  <!-- MotoOTA Icon Sprite Sheet -->

  <!-- icon-logo: Shield with download arrow brand mark -->
  <symbol id="icon-logo" viewBox="0 0 24 24">
    <path d="M12 2L4 6v6c0 5.25 3.4 10.15 8 11.4 4.6-1.25 8-6.15 8-11.4V6l-8-4z"
          fill="none" stroke="currentColor" stroke-width="1.5" stroke-linecap="round" stroke-linejoin="round"/>
    <path d="M12 8v6m0 0l-2.5-2.5M12 14l2.5-2.5M8.5 17h7"
          fill="none" stroke="currentColor" stroke-width="1.5" stroke-linecap="round" stroke-linejoin="round"/>
  </symbol>

  <!-- icon-search: Magnifying glass -->
  <symbol id="icon-search" viewBox="0 0 24 24">
    <circle cx="11" cy="11" r="7" fill="none" stroke="currentColor" stroke-width="1.5" stroke-linecap="round" stroke-linejoin="round"/>
    <path d="M16 16l4.5 4.5" fill="none" stroke="currentColor" stroke-width="1.5" stroke-linecap="round" stroke-linejoin="round"/>
  </symbol>

  <!-- icon-download: Download arrow with tray -->
  <symbol id="icon-download" viewBox="0 0 24 24">
    <path d="M12 3v12m0 0l-4-4m4 4l4-4" fill="none" stroke="currentColor" stroke-width="1.5" stroke-linecap="round" stroke-linejoin="round"/>
    <path d="M4 17v2a2 2 0 002 2h12a2 2 0 002-2v-2" fill="none" stroke="currentColor" stroke-width="1.5" stroke-linecap="round" stroke-linejoin="round"/>
  </symbol>

  <!-- icon-phone: Smartphone outline -->
  <symbol id="icon-phone" viewBox="0 0 24 24">
    <rect x="6" y="2" width="12" height="20" rx="2" fill="none" stroke="currentColor" stroke-width="1.5" stroke-linecap="round" stroke-linejoin="round"/>
    <path d="M10 18h4" fill="none" stroke="currentColor" stroke-width="1.5" stroke-linecap="round" stroke-linejoin="round"/>
  </symbol>

  <!-- icon-carrier: Cell tower / signal -->
  <symbol id="icon-carrier" viewBox="0 0 24 24">
    <path d="M12 22V10m0 0l-4 4m4-4l4 4" fill="none" stroke="currentColor" stroke-width="1.5" stroke-linecap="round" stroke-linejoin="round"/>
    <path d="M6.5 7a7 7 0 0111 0" fill="none" stroke="currentColor" stroke-width="1.5" stroke-linecap="round" stroke-linejoin="round"/>
    <path d="M3.5 4a11.5 11.5 0 0117 0" fill="none" stroke="currentColor" stroke-width="1.5" stroke-linecap="round" stroke-linejoin="round"/>
    <circle cx="12" cy="10" r="1" fill="currentColor" stroke="none"/>
  </symbol>

  <!-- icon-server: Server rack -->
  <symbol id="icon-server" viewBox="0 0 24 24">
    <rect x="3" y="3" width="18" height="7" rx="1.5" fill="none" stroke="currentColor" stroke-width="1.5" stroke-linecap="round" stroke-linejoin="round"/>
    <rect x="3" y="14" width="18" height="7" rx="1.5" fill="none" stroke="currentColor" stroke-width="1.5" stroke-linecap="round" stroke-linejoin="round"/>
    <circle cx="7" cy="6.5" r="0.75" fill="currentColor" stroke="none"/>
    <circle cx="7" cy="17.5" r="0.75" fill="currentColor" stroke="none"/>
    <path d="M11 6.5h6m-6 11h6" fill="none" stroke="currentColor" stroke-width="1.5" stroke-linecap="round" stroke-linejoin="round"/>
  </symbol>

  <!-- icon-chain: Chain links -->
  <symbol id="icon-chain" viewBox="0 0 24 24">
    <path d="M15 7h2a5 5 0 010 10h-2m-6 0H7A5 5 0 017 7h2" fill="none" stroke="currentColor" stroke-width="1.5" stroke-linecap="round" stroke-linejoin="round"/>
    <path d="M8 12h8" fill="none" stroke="currentColor" stroke-width="1.5" stroke-linecap="round" stroke-linejoin="round"/>
  </symbol>

  <!-- icon-scan: Radar/scan sweep -->
  <symbol id="icon-scan" viewBox="0 0 24 24">
    <circle cx="12" cy="12" r="9" fill="none" stroke="currentColor" stroke-width="1.5" stroke-linecap="round" stroke-linejoin="round"/>
    <circle cx="12" cy="12" r="5" fill="none" stroke="currentColor" stroke-width="1.5" stroke-linecap="round" stroke-linejoin="round"/>
    <circle cx="12" cy="12" r="1" fill="currentColor" stroke="none"/>
    <path d="M12 12l5-5" fill="none" stroke="currentColor" stroke-width="1.5" stroke-linecap="round" stroke-linejoin="round"/>
  </symbol>

  <!-- icon-shield: Shield with checkmark -->
  <symbol id="icon-shield" viewBox="0 0 24 24">
    <path d="M12 2L4 6v6c0 5.25 3.4 10.15 8 11.4 4.6-1.25 8-6.15 8-11.4V6l-8-4z"
          fill="none" stroke="currentColor" stroke-width="1.5" stroke-linecap="round" stroke-linejoin="round"/>
    <path d="M9 12l2 2 4-4" fill="none" stroke="currentColor" stroke-width="1.5" stroke-linecap="round" stroke-linejoin="round"/>
  </symbol>

  <!-- icon-globe: Globe -->
  <symbol id="icon-globe" viewBox="0 0 24 24">
    <circle cx="12" cy="12" r="9" fill="none" stroke="currentColor" stroke-width="1.5" stroke-linecap="round" stroke-linejoin="round"/>
    <ellipse cx="12" cy="12" rx="4" ry="9" fill="none" stroke="currentColor" stroke-width="1.5" stroke-linecap="round" stroke-linejoin="round"/>
    <path d="M3.5 9h17m-17 6h17" fill="none" stroke="currentColor" stroke-width="1.5" stroke-linecap="round" stroke-linejoin="round"/>
  </symbol>

  <!-- icon-info: Info circle -->
  <symbol id="icon-info" viewBox="0 0 24 24">
    <circle cx="12" cy="12" r="9" fill="none" stroke="currentColor" stroke-width="1.5" stroke-linecap="round" stroke-linejoin="round"/>
    <path d="M12 16v-4m0-4h.01" fill="none" stroke="currentColor" stroke-width="1.5" stroke-linecap="round" stroke-linejoin="round"/>
  </symbol>

  <!-- icon-warning: Warning triangle -->
  <symbol id="icon-warning" viewBox="0 0 24 24">
    <path d="M12 3L2 20h20z" fill="none" stroke="currentColor" stroke-width="1.5" stroke-linecap="round" stroke-linejoin="round"/>
    <path d="M12 9v4m0 4h.01" fill="none" stroke="currentColor" stroke-width="1.5" stroke-linecap="round" stroke-linejoin="round"/>
  </symbol>

  <!-- icon-success: Check circle -->
  <symbol id="icon-success" viewBox="0 0 24 24">
    <circle cx="12" cy="12" r="9" fill="none" stroke="currentColor" stroke-width="1.5" stroke-linecap="round" stroke-linejoin="round"/>
    <path d="M9 12l2 2 4-4" fill="none" stroke="currentColor" stroke-width="1.5" stroke-linecap="round" stroke-linejoin="round"/>
  </symbol>

  <!-- icon-error: X circle -->
  <symbol id="icon-error" viewBox="0 0 24 24">
    <circle cx="12" cy="12" r="9" fill="none" stroke="currentColor" stroke-width="1.5" stroke-linecap="round" stroke-linejoin="round"/>
    <path d="M15 9l-6 6m0-6l6 6" fill="none" stroke="currentColor" stroke-width="1.5" stroke-linecap="round" stroke-linejoin="round"/>
  </symbol>

  <!-- icon-arrow-right: Arrow right -->
  <symbol id="icon-arrow-right" viewBox="0 0 24 24">
    <path d="M5 12h14m0 0l-5-5m5 5l-5 5" fill="none" stroke="currentColor" stroke-width="1.5" stroke-linecap="round" stroke-linejoin="round"/>
  </symbol>

  <!-- icon-arrow-down: Arrow down -->
  <symbol id="icon-arrow-down" viewBox="0 0 24 24">
    <path d="M12 5v14m0 0l-5-5m5 5l5-5" fill="none" stroke="currentColor" stroke-width="1.5" stroke-linecap="round" stroke-linejoin="round"/>
  </symbol>

  <!-- icon-github: GitHub-style mark -->
  <symbol id="icon-github" viewBox="0 0 24 24">
    <path d="M12 2C6.48 2 2 6.48 2 12c0 4.42 2.87 8.17 6.84 9.5.5.08.66-.23.66-.5v-1.69c-2.77.6-3.36-1.34-3.36-1.34-.46-1.16-1.11-1.47-1.11-1.47-.91-.62.07-.6.07-.6 1 .07 1.53 1.03 1.53 1.03.87 1.52 2.34 1.07 2.91.83.09-.65.35-1.09.63-1.34-2.22-.25-4.55-1.11-4.55-4.93 0-1.09.39-1.98 1.03-2.68-.1-.25-.45-1.27.1-2.64 0 0 .84-.27 2.75 1.02A9.56 9.56 0 0112 6.8c.85.004 1.71.115 2.51.34 1.91-1.29 2.75-1.02 2.75-1.02.55 1.37.2 2.39.1 2.64.64.7 1.03 1.59 1.03 2.68 0 3.84-2.34 4.68-4.57 4.93.36.31.68.92.68 1.85v2.74c0 .27.16.59.67.5A10.02 10.02 0 0022 12c0-5.52-4.48-10-10-10z"
          fill="none" stroke="currentColor" stroke-width="1.5" stroke-linecap="round" stroke-linejoin="round"/>
  </symbol>

  <!-- icon-settings: Gear/cog -->
  <symbol id="icon-settings" viewBox="0 0 24 24">
    <circle cx="12" cy="12" r="3" fill="none" stroke="currentColor" stroke-width="1.5" stroke-linecap="round" stroke-linejoin="round"/>
    <path d="M19.4 15a1.65 1.65 0 00.33 1.82l.06.06a2 2 0 01-1.42 3.42 2 2 0 01-1.41-.59l-.06-.06a1.65 1.65 0 00-1.82-.33 1.65 1.65 0 00-1 1.51V21a2 2 0 01-4 0v-.09a1.65 1.65 0 00-1.08-1.51 1.65 1.65 0 00-1.82.33l-.06.06a2 2 0 01-3.42-1.42 2 2 0 01.59-1.41l.06-.06a1.65 1.65 0 00.33-1.82 1.65 1.65 0 00-1.51-1H3a2 2 0 010-4h.09a1.65 1.65 0 001.51-1.08 1.65 1.65 0 00-.33-1.82l-.06-.06a2 2 0 011.42-3.42 2 2 0 011.41.59l.06.06a1.65 1.65 0 001.82.33H9a1.65 1.65 0 001-1.51V3a2 2 0 014 0v.09a1.65 1.65 0 001 1.51 1.65 1.65 0 001.82-.33l.06-.06a2 2 0 013.42 1.42 2 2 0 01-.59 1.41l-.06.06a1.65 1.65 0 00-.33 1.82V9a1.65 1.65 0 001.51 1H21a2 2 0 010 4h-.09a1.65 1.65 0 00-1.51 1z"
          fill="none" stroke="currentColor" stroke-width="1.5" stroke-linecap="round" stroke-linejoin="round"/>
  </symbol>

  <!-- icon-copy: Copy/clipboard -->
  <symbol id="icon-copy" viewBox="0 0 24 24">
    <rect x="9" y="9" width="12" height="12" rx="2" fill="none" stroke="currentColor" stroke-width="1.5" stroke-linecap="round" stroke-linejoin="round"/>
    <path d="M5 15H4a2 2 0 01-2-2V4a2 2 0 012-2h9a2 2 0 012 2v1" fill="none" stroke="currentColor" stroke-width="1.5" stroke-linecap="round" stroke-linejoin="round"/>
  </symbol>

  <!-- icon-external: External link arrow -->
  <symbol id="icon-external" viewBox="0 0 24 24">
    <path d="M18 13v6a2 2 0 01-2 2H5a2 2 0 01-2-2V8a2 2 0 012-2h6" fill="none" stroke="currentColor" stroke-width="1.5" stroke-linecap="round" stroke-linejoin="round"/>
    <path d="M15 3h6v6" fill="none" stroke="currentColor" stroke-width="1.5" stroke-linecap="round" stroke-linejoin="round"/>
    <path d="M10 14L21 3" fill="none" stroke="currentColor" stroke-width="1.5" stroke-linecap="round" stroke-linejoin="round"/>
  </symbol>
</svg>
